<svg xmlns="http://www.w3.org/2000/svg" width="92.583" height="98.499"><path opacity=".25" fill="#00beaf" d="M15.542 19h77.042v54.667H15.542z"/><g fill="none" stroke="#00383c" stroke-width="2" stroke-miterlimit="10"><path d="M6.167 86.833h24.167v8.333H6.167zm3.901 0v-6.167l-2.235-1V58s-.041-2.167 2.235-2.167c2.765 0 2.765 2.167 2.765 2.167v6.833m-.375-8.604s.875-2.563 3.208-2.396c2.333.167 2.583 2 2.583 2v8.833"/><path d="M18.25 57.824V45.333s-.017-2.667 2.917-2.667c2.721 0 2.667 2.833 2.667 2.833l.006 1.999.049 17.167m-.001-16.332s.107-1.5 2.612-1.5c1.49 0 2.333 1.5 2.333 1.5l.002 23.833L32 68.5v-4.667s-.5-2.509 2.5-2.588c3-.079 2.667 2.421 2.667 2.421l.011 9.167L27.5 82v4.833m24.678 3.332h24.167v7.333H52.178zm20.265 0v-6.167l2.235-1V61.332s.041-2.167-2.235-2.167c-2.765 0-2.765 2.167-2.765 2.167v6.833m.405-8.623s-.906-2.543-3.239-2.376c-2.333.167-2.583 2-2.583 2v8.833"/><path d="M64.261 61.156V48.665s.421-2.658-2.917-2.667c-2.721-.007-2.667 2.833-2.667 2.833l-.006 1.999-.049 17.167m.001-16.332s-.112-1.667-2.612-1.5c-2.5.167-2.333 1.5-2.333 1.5l-.002 23.833-3.164-3.667v-5.667s.501-2.589-2.5-2.588c-2.678.001-2.667 2.421-2.667 2.421l-.011 10.167 9.678 9.167v4.833"/><path d="M7 63.833H1v-36.5l80.167-.833v37.333h-6.489M41.083 26.5V22s.083-3.833-3.083-4.333-6.333 1.167-6.5-3.167.333-5 2.833-5h11"/><path d="M7.793 33.167h6.02v6.02h-6.02zm10.074 0h6.02v6.02h-6.02zm10.123 0h6.02v6.02h-6.02zm10.075 0h6.02v6.02h-6.02zm10.101 0h6.02v6.02h-6.02zm10.075 0h6.02v6.02h-6.02zM8.058 42.982h6.02v6.02h-6.02zm60.64-9.833h6.02V48h-6.02zm-30.586 9.833h6.02v6.02h-6.02zm10.054 0h6.02v6.02h-6.02zM29.333 53.333h23.5m-23.999 4.662h24.843M67.698 51.5h7.02v5.656M26.833 42.982h7v7.02M44.132 9.5s2.589.418 4.034-1.197c1.063-1.188 1-2.636 1-2.636V0m8.075 42.982h8.037"/></g></svg>