<svg xmlns="http://www.w3.org/2000/svg" width="90.267" height="88.753"><path opacity=".25" fill="#00beaf" d="M12.767 33.003h77.5v55.75h-77.5z"/><path fill="none" stroke="#00383c" stroke-width="2" stroke-miterlimit="10" d="M2.267 49.003v31.75m5 0h74.5v-33.25"/><path fill="none" stroke="#00383c" stroke-width="2" stroke-miterlimit="10" d="M36.017 16.003h12.75v56h-12.75zm-3.75 33h19.5m-9.75 7v-7m-6 13.75h12.75m-40.25 2.125v9.125h8.5m58.75-7.625v7.625h-9m-37.75-58v-7.5h26v6.5m-20 41l-34-12.25v-18.75s-.5-5.25 4-5 28.5-.009 28.5-.009"/><path d="M51.767 19.995h25.75s3.75.592 4.25 4.009v19l-33 13m12.5-40.001v-9s.408-2-2-4c-2.616-2.173-4.25-2-4.25-2h-23.75s-4.19.276-6.25 2.25c-2 1.917-2 4.25-2 4.25v8.5" fill="none" stroke="#00383c" stroke-width="2" stroke-miterlimit="10"/></svg>