<svg xmlns="http://www.w3.org/2000/svg" width="109.2" height="86.5"><path opacity=".25" fill="#00beaf" d="M46.25 0L0 24l48.75 26 46.5-24z"/><path d="M65.625 2l41 21-15 5s-1.008-5.81-26-7c-21-1-26 7-26 7l-14-6 40-20z" fill="none" stroke="#00383c" stroke-width="2" stroke-miterlimit="10"/><circle cx="31.125" cy="48.5" r="5" fill="none" stroke="#00383c" stroke-width="2" stroke-miterlimit="10"/><path fill="none" stroke="#00383c" stroke-width="2" stroke-miterlimit="10" d="M30.625 44V24m9 4v16.75m26 15.25v-4s-1-3 3-3h8s4 0 4-5-5-4-5-4h-20s-4 0-4-4m14-14v8s0 2-2 3"/><path d="M45.625 40s-12.003 3.8-1.375 10c6 3.5 17.25 2.625 17.25 2.625m9.125-15.875s20.972 1.625 20.972 8L91.625 28m0 16s.5 4-5.375 6M71.625 85.5h-11.02c-1.65 0-3-1.35-3-3v-19c0-1.65 1.35-3 3-3h11.02c1.65 0 3 1.35 3 3v19c0 1.65-1.35 3-3 3zm-5.5-20.5v4.75M64.625 37H54.75s-2-.25-3.125 1.875 1.05 3.942 1.05 3.942" fill="none" stroke="#00383c" stroke-width="2" stroke-miterlimit="10"/></svg>