<svg xmlns="http://www.w3.org/2000/svg" width="84.25" height="95.75"><path opacity=".25" fill="#00beaf" d="M0 46h73v49.75H0z"/><path fill="none" stroke="#00383c" stroke-width="2" stroke-miterlimit="10" d="M24 85.5V56.904L48.244 47.5l21.506 8v30"/><path fill="none" stroke="#00383c" stroke-width="2" stroke-miterlimit="10" d="M37.25 84.375V67l9.625-5.25L56.5 67v18.5m-9.75 0l.125-23.75M40.25 65.5V50.601m13.75 0V65.5M38.75 34.25V43m8.125-8.75L46.75 43M54 34.25V43m-25.25-8.75V28H64.5v6.25M32.75 28s.75-13.75 14.125-13S60.5 28 60.5 28M46.625 1H56.5v6.75h-9.875zm.125 14l-.125-7.25"/><path fill="none" stroke="#00383c" stroke-width="2" stroke-miterlimit="10" d="M70.25 34.25H24V42H10.25v43.5h73V43H70.333z"/></svg>