<?xml version="1.0" encoding="utf-8"?><svg width="290" height="189" viewBox="0 0 290 189" xmlns="http://www.w3.org/2000/svg" xmlns:xlink="http://www.w3.org/1999/xlink"><svg width="92.27" height="90.75" viewBox="-1 -1 92.27 90.75" id="perks-bag" x="197.45" xmlns="http://www.w3.org/2000/svg"><path opacity=".25" fill="#00beaf" d="M12.767 33.003h77.5v55.75h-77.5z"/><path fill="none" stroke="#00383c" stroke-width="2" stroke-miterlimit="10" d="M2.267 49.003v31.75m5 0h74.5v-33.25"/><path fill="none" stroke="#00383c" stroke-width="2" stroke-miterlimit="10" d="M36.017 16.003h12.75v56h-12.75zm-3.75 33h19.5m-9.75 7v-7m-6 13.75h12.75m-40.25 2.125v9.125h8.5m58.75-7.625v7.625h-9m-37.75-58v-7.5h26v6.5m-20 41l-34-12.25v-18.75s-.5-5.25 4-5 28.5-.009 28.5-.009"/><path d="M51.767 19.995h25.75s3.75.592 4.25 4.009v19l-33 13m12.5-40.001v-9s.408-2-2-4c-2.616-2.173-4.25-2-4.25-2h-23.75s-4.19.276-6.25 2.25c-2 1.917-2 4.25-2 4.25v8.5" fill="none" stroke="#00383c" stroke-width="2" stroke-miterlimit="10"/></svg><svg width="86.25" height="97.75" viewBox="-1 -1 86.25 97.75" id="perks-building" x="111.2" xmlns="http://www.w3.org/2000/svg"><path opacity=".25" fill="#00beaf" d="M0 46h73v49.75H0z"/><path fill="none" stroke="#00383c" stroke-width="2" stroke-miterlimit="10" d="M24 85.5V56.904L48.244 47.5l21.506 8v30"/><path fill="none" stroke="#00383c" stroke-width="2" stroke-miterlimit="10" d="M37.25 84.375V67l9.625-5.25L56.5 67v18.5m-9.75 0l.125-23.75M40.25 65.5V50.601m13.75 0V65.5M38.75 34.25V43m8.125-8.75L46.75 43M54 34.25V43m-25.25-8.75V28H64.5v6.25M32.75 28s.75-13.75 14.125-13S60.5 28 60.5 28M46.625 1H56.5v6.75h-9.875zm.125 14l-.125-7.25"/><path fill="none" stroke="#00383c" stroke-width="2" stroke-miterlimit="10" d="M70.25 34.25H24V42H10.25v43.5h73V43H70.333z"/></svg><svg width="94.58" height="100.5" viewBox="-1 -1 94.58 100.5" id="perks-hands" y="88.5" xmlns="http://www.w3.org/2000/svg"><path opacity=".25" fill="#00beaf" d="M15.542 19h77.042v54.667H15.542z"/><g fill="none" stroke="#00383c" stroke-width="2" stroke-miterlimit="10"><path d="M6.167 86.833h24.167v8.333H6.167zm3.901 0v-6.167l-2.235-1V58s-.041-2.167 2.235-2.167c2.765 0 2.765 2.167 2.765 2.167v6.833m-.375-8.604s.875-2.563 3.208-2.396c2.333.167 2.583 2 2.583 2v8.833"/><path d="M18.25 57.824V45.333s-.017-2.667 2.917-2.667c2.721 0 2.667 2.833 2.667 2.833l.006 1.999.049 17.167m-.001-16.332s.107-1.5 2.612-1.5c1.49 0 2.333 1.5 2.333 1.5l.002 23.833L32 68.5v-4.667s-.5-2.509 2.5-2.588c3-.079 2.667 2.421 2.667 2.421l.011 9.167L27.5 82v4.833m24.678 3.332h24.167v7.333H52.178zm20.265 0v-6.167l2.235-1V61.332s.041-2.167-2.235-2.167c-2.765 0-2.765 2.167-2.765 2.167v6.833m.405-8.623s-.906-2.543-3.239-2.376c-2.333.167-2.583 2-2.583 2v8.833"/><path d="M64.261 61.156V48.665s.421-2.658-2.917-2.667c-2.721-.007-2.667 2.833-2.667 2.833l-.006 1.999-.049 17.167m.001-16.332s-.112-1.667-2.612-1.5c-2.5.167-2.333 1.5-2.333 1.5l-.002 23.833-3.164-3.667v-5.667s.501-2.589-2.5-2.588c-2.678.001-2.667 2.421-2.667 2.421l-.011 10.167 9.678 9.167v4.833"/><path d="M7 63.833H1v-36.5l80.167-.833v37.333h-6.489M41.083 26.5V22s.083-3.833-3.083-4.333-6.333 1.167-6.5-3.167.333-5 2.833-5h11"/><path d="M7.793 33.167h6.02v6.02h-6.02zm10.074 0h6.02v6.02h-6.02zm10.123 0h6.02v6.02h-6.02zm10.075 0h6.02v6.02h-6.02zm10.101 0h6.02v6.02h-6.02zm10.075 0h6.02v6.02h-6.02zM8.058 42.982h6.02v6.02h-6.02zm60.64-9.833h6.02V48h-6.02zm-30.586 9.833h6.02v6.02h-6.02zm10.054 0h6.02v6.02h-6.02zM29.333 53.333h23.5m-23.999 4.662h24.843M67.698 51.5h7.02v5.656M26.833 42.982h7v7.02M44.132 9.5s2.589.418 4.034-1.197c1.063-1.188 1-2.636 1-2.636V0m8.075 42.982h8.037"/></g></svg><svg width="111.2" height="88.5" viewBox="-1 -1 111.2 88.5" id="perks-hat" xmlns="http://www.w3.org/2000/svg"><path opacity=".25" fill="#00beaf" d="M46.25 0L0 24l48.75 26 46.5-24z"/><path d="M65.625 2l41 21-15 5s-1.008-5.81-26-7c-21-1-26 7-26 7l-14-6 40-20z" fill="none" stroke="#00383c" stroke-width="2" stroke-miterlimit="10"/><circle cx="31.125" cy="48.5" r="5" fill="none" stroke="#00383c" stroke-width="2" stroke-miterlimit="10"/><path fill="none" stroke="#00383c" stroke-width="2" stroke-miterlimit="10" d="M30.625 44V24m9 4v16.75m26 15.25v-4s-1-3 3-3h8s4 0 4-5-5-4-5-4h-20s-4 0-4-4m14-14v8s0 2-2 3"/><path d="M45.625 40s-12.003 3.8-1.375 10c6 3.5 17.25 2.625 17.25 2.625m9.125-15.875s20.972 1.625 20.972 8L91.625 28m0 16s.5 4-5.375 6M71.625 85.5h-11.02c-1.65 0-3-1.35-3-3v-19c0-1.65 1.35-3 3-3h11.02c1.65 0 3 1.35 3 3v19c0 1.65-1.35 3-3 3zm-5.5-20.5v4.75M64.625 37H54.75s-2-.25-3.125 1.875 1.05 3.942 1.05 3.942" fill="none" stroke="#00383c" stroke-width="2" stroke-miterlimit="10"/></svg></svg>