<?xml version="1.0" encoding="utf-8"?><svg xmlns="http://www.w3.org/2000/svg" xmlns:xlink="http://www.w3.org/1999/xlink"><symbol viewBox="0 0 32 18" id="hamburger" xmlns="http://www.w3.org/2000/svg"><path d="M0 1h32M0 9h32M0 17h32" stroke="#000" stroke-width="2" stroke-miterlimit="10"/></symbol><symbol viewBox="0 0 30 30" id="main-circle" xmlns="http://www.w3.org/2000/svg"><defs><path id="ba" d="M0 0h30v30H0z"/></defs><clipPath id="bb"><use xlink:href="#ba" overflow="visible"/></clipPath><path d="M15 2c7.168 0 13 5.832 13 13s-5.832 13-13 13S2 22.168 2 15 7.832 2 15 2m0-2C6.716 0 0 6.716 0 15s6.716 15 15 15 15-6.716 15-15S23.284 0 15 0" clip-path="url(#bb)"/></symbol><symbol viewBox="0 0 27 27" id="main-square" xmlns="http://www.w3.org/2000/svg"><path d="M2 2h23v23H2V2zM0 27h27V0H0v27z"/></symbol><symbol viewBox="0 0 35.654 27.855" id="main-triangle" xmlns="http://www.w3.org/2000/svg"><defs><path id="da" d="M0 0h35.655v27.855H0z"/></defs><clipPath id="db"><use xlink:href="#da" overflow="visible"/></clipPath><path clip-path="url(#db)" stroke="#000" stroke-width="2" stroke-miterlimit="10" d="M17.827 1.855l-16 25h32z"/></symbol></svg>