<?xml version="1.0" encoding="utf-8"?>
<!-- Generator: Adobe Illustrator 19.0.0, SVG Export Plug-In . SVG Version: 6.00 Build 0)  -->
<svg version="1.1" id="Слой_1" xmlns="http://www.w3.org/2000/svg" xmlns:xlink="http://www.w3.org/1999/xlink" x="0px" y="0px"
	 width="175px" height="126.72438px" viewBox="0 0 175 126.72438" style="enable-background:new 0 0 175 126.72438;"
	 xml:space="preserve">
<g>
	<path d="M111.62988,125.22453c-2.14209,0-4.15088-0.82959-5.65674-2.33545s-2.33545-3.51465-2.33545-5.65674
		s0.82959-4.15088,2.33545-5.65674l40.21338-40.21338H9.5c-4.41113,0-8-3.58887-8-8s3.58887-8,8-8h136.68652l-40.21338-40.21338
		c-1.50586-1.50586-2.33545-3.51465-2.33545-5.65674s0.82959-4.15088,2.33545-5.65674s3.51465-2.33545,5.65674-2.33545
		s4.15088,0.82959,5.65674,2.33545l53.77783,53.77734l0.09961,0.11133c1.49707,1.49072,2.33594,3.50244,2.33594,5.63818
		s-0.83887,4.14746-2.36279,5.66406c-0.01709,0.0249-0.06201,0.07471-0.11035,0.12256l-53.74023,53.74023
		C115.78076,124.39494,113.77197,125.22453,111.62988,125.22453z"/>
	<path d="M111.62994,3.00002c1.66614,0,3.33228,0.63199,4.59619,1.89597l53.74011,53.74011
		c0.04016,0.04016,0.07416,0.08417,0.11304,0.12518C171.26379,59.94029,172,61.5692,172,63.36223s-0.73621,3.42194-1.92072,4.60095
		c-0.03888,0.04102-0.07288,0.08502-0.11304,0.12518l-53.74011,53.74011c-1.26392,1.26395-2.93005,1.8959-4.59619,1.8959
		s-3.33228-0.63196-4.59619-1.8959c-2.52789-2.52789-2.52789-6.66449,0-9.19238l42.77386-42.77386H9.5
		c-3.57501,0-6.5-2.92499-6.5-6.5s2.92499-6.5,6.5-6.5h140.30762l-42.77386-42.77386c-2.52789-2.52789-2.52789-6.66451,0-9.19238
		C108.29767,3.632,109.96381,3.00002,111.62994,3.00002 M111.62994,0c-2.54266,0-4.92828,0.9854-6.71753,2.77467
		c-1.78925,1.78922-2.7746,4.17485-2.7746,6.7175c0,2.54263,0.98535,4.92828,2.7746,6.71753l37.65253,37.65253H9.5
		c-5.23831,0-9.5,4.26169-9.5,9.5s4.26169,9.5,9.5,9.5h133.06494l-37.65253,37.65253c-1.78925,1.78925-2.7746,4.1749-2.7746,6.71753
		s0.98535,4.92828,2.7746,6.71753c1.78925,1.78922,4.17487,2.77457,6.71753,2.77457s4.92828-0.98535,6.71753-2.77457
		l53.74011-53.74011c0.06201-0.06204,0.12085-0.12573,0.1781-0.19067C174.02972,68.22737,175,65.86736,175,63.36223
		c0-2.50546-0.97064-4.86581-2.73505-6.65756c-0.05963-0.06757-0.117-0.12952-0.17737-0.18991L118.34747,2.77464
		C116.55823,0.9854,114.17261,0,111.62994,0L111.62994,0z"/>
</g>
</svg>
