<?xml version="1.0" encoding="utf-8"?>
<!-- Generator: Adobe Illustrator 19.0.0, SVG Export Plug-In . SVG Version: 6.00 Build 0)  -->
<svg version="1.1" id="Layer_1" xmlns="http://www.w3.org/2000/svg" xmlns:xlink="http://www.w3.org/1999/xlink" x="0px" y="0px"
	 width="72.5374px" height="91px" viewBox="0 0 72.5374 91" style="enable-background:new 0 0 72.5374 91;" xml:space="preserve">
<style type="text/css">
	.st0{clip-path:url(#SVGID_2_);}
</style>
<g>
	<defs>
		<rect id="SVGID_1_" width="72.537" height="91"/>
	</defs>
	<clipPath id="SVGID_2_">
		<use xlink:href="#SVGID_1_"  style="overflow:visible;"/>
	</clipPath>
	<path class="st0" d="M56.3573,33.86c-0.624,0-1.241,0.119-1.82,0.35v-0.47c-0.006-2.964-2.406-5.364-5.37-5.37h-0.25
		c-0.866,0.007-1.718,0.227-2.479,0.64c-0.517-2.495-2.712-4.286-5.261-4.29c-0.914-0.001-1.815,0.215-2.63,0.63v-7.76h9.5
		c0.829,0,1.5-0.672,1.5-1.5v-14.59c0-0.829-0.671-1.5-1.5-1.5h-0.01h-31c-0.828,0-1.5,0.671-1.5,1.5v14.59
		c0,0.828,0.672,1.5,1.5,1.5h10.5v36.7l-8.79-7.2c-3.657-3.06-9.041-2.834-12.43,0.52c-0.545,0.538-0.596,1.401-0.12,2l21.34,27.28
		V89.5c0,0.828,0.672,1.5,1.5,1.5c0.829,0,1.5-0.672,1.5-1.5V76.37c-0.001-0.334-0.114-0.657-0.32-0.92l-20.76-26.56
		c2.3-1.464,5.284-1.266,7.37,0.49l11.26,9.23c0.641,0.525,1.586,0.43,2.111-0.211c0.217-0.265,0.337-0.596,0.339-0.939V12.61001
		c0.005-1.307,1.064-2.364,2.37-2.37h0.25c1.311,0,2.375,1.059,2.38,2.37V44.5c0,0.828,0.672,1.5,1.5,1.5c0.829,0,1.5-0.672,1.5-1.5
		V30c0.137-1.334,1.29-2.33,2.63-2.27c1.307,0.005,2.364,1.063,2.37,2.37v3.4v0.12v0.12V44.5c0,0.828,0.672,1.5,1.5,1.5
		s1.5-0.672,1.5-1.5V33.75c0.006-1.307,1.064-2.365,2.37-2.37h0.25c1.311,0,2.374,1.059,2.38,2.37V44.5c0,0.828,0.672,1.5,1.5,1.5
		s1.5-0.672,1.5-1.5V39c-0.139-1.035,0.588-1.985,1.622-2.124c0.067-0.009,0.132-0.014,0.198-0.016c1.189,0,2.159,0.952,2.18,2.14
		v25.89c0.009,4.12901-1.633,8.089-4.559,11.00001c-0.294,0.294-0.455,0.695-0.441,1.10999v11.5c0,0.828,0.672,1.5,1.5,1.5
		s1.5-0.672,1.5-1.5V77.57c3.225-3.433,5.014-7.969,5-12.68V39C61.5163,36.155,59.2023,33.86,56.3573,33.86 M33.1673,7.23h-0.25
		c-2.971,0-5.38,2.409-5.38,5.38v2h-9v-11.61h28v11.59h-8v-2C38.5263,9.63,36.1263,7.23501,33.1673,7.23"/>
	<path class="st0" d="M71.0374,6h-15c-0.828,0-1.5,0.67101-1.5,1.5c0,0.829,0.672,1.5,1.5,1.5h15c0.828,0,1.5-0.671,1.5-1.5
		C72.5374,6.67101,71.86539,6,71.0374,6"/>
	<path class="st0" d="M56.2074,15c-0.606-0.56499-1.555-0.531-2.12,0.075c-0.536,0.576-0.536,1.469,0,2.045l13.37,13.4
		c0.667,0.491,1.606,0.348,2.098-0.319c0.394-0.537,0.387-1.271-0.018-1.801L56.2074,15z"/>
	<path class="st0" d="M12.5975,19.9399c-0.585-0.585-1.535-0.585-2.12,0l-10,10c-0.606,0.565-0.64,1.514-0.075,2.12
		c0.565,0.606,1.514,0.64,2.12,0.075c0.026-0.024,0.051-0.049,0.075-0.075l10-10c0.606-0.564,0.676-1.475,0.112-2.081
		C12.6845,19.9519,12.6595,19.9259,12.5975,19.9399"/>
</g>
</svg>
