<?xml version="1.0" encoding="utf-8"?>
<!-- Generator: Adobe Illustrator 19.0.0, SVG Export Plug-In . SVG Version: 6.00 Build 0)  -->
<svg version="1.1" id="Layer_1" xmlns="http://www.w3.org/2000/svg" xmlns:xlink="http://www.w3.org/1999/xlink" x="0px" y="0px"
	 width="88.65px" height="76.837px" viewBox="0 0 88.65 76.837" style="enable-background:new 0 0 88.65 76.837;"
	 xml:space="preserve">
<g>
	<defs>
		<rect id="SVGID_1_" y="0" width="88.65" height="76.837"/>
	</defs>
	<clipPath id="SVGID_2_">
		<use xlink:href="#SVGID_1_"  style="overflow:visible;"/>
	</clipPath>
	<path style="clip-path:url(#SVGID_2_);" d="M81.991,0H20.897c-3.648,0-6.571,2.565-6.655,5.878v12.814c0,0.829,0.671,1.5,1.5,1.5
		s1.5-0.671,1.5-1.5V5.916C17.283,4.308,18.923,3,20.897,3h61.094c2.018,0,3.659,1.335,3.659,2.977v48.946
		c0,1.643-1.642,2.979-3.659,2.979H20.897c-2.015,0-3.655-1.336-3.655-2.979v-7.007c0-0.828-0.671-1.5-1.5-1.5s-1.5,0.672-1.5,1.5
		v7.007c0,3.297,2.985,5.979,6.655,5.979h28.818v12.935H30.674c-0.829,0-1.5,0.672-1.5,1.5c0,0.828,0.671,1.5,1.5,1.5h40.914
		c0.828,0,1.5-0.672,1.5-1.5c0-0.828-0.672-1.5-1.5-1.5H52.715V60.901h29.276c3.672,0,6.659-2.682,6.659-5.979V5.977
		C88.65,2.681,85.663,0,81.991,0"/>
	<path style="clip-path:url(#SVGID_2_);" d="M41.454,24.475h32.151c0.828,0,1.5-0.671,1.5-1.5c0-0.829-0.672-1.5-1.5-1.5H41.454
		c-0.829,0-1.5,0.671-1.5,1.5C39.954,23.804,40.625,24.475,41.454,24.475"/>
	<path style="clip-path:url(#SVGID_2_);" d="M41.454,33.974h32.151c0.828,0,1.5-0.671,1.5-1.5c0-0.829-0.672-1.5-1.5-1.5H41.454
		c-0.829,0-1.5,0.671-1.5,1.5C39.954,33.303,40.625,33.974,41.454,33.974"/>
	<path style="clip-path:url(#SVGID_2_);" d="M41.454,43.998h32.151c0.828,0,1.5-0.672,1.5-1.5c0-0.828-0.672-1.5-1.5-1.5H41.454
		c-0.829,0-1.5,0.672-1.5,1.5C39.954,43.326,40.625,43.998,41.454,43.998"/>
	<path style="clip-path:url(#SVGID_2_);" d="M15.436,37.143c0.387,0,0.771-0.149,1.061-0.439l21.672-21.673
		c0.586-0.586,0.586-1.536,0-2.121c-0.586-0.586-1.535-0.586-2.121,0L15.273,33.686L2.37,24.5c-0.676-0.48-1.611-0.322-2.092,0.352
		c-0.48,0.675-0.323,1.612,0.353,2.092l13.937,9.921C14.829,37.052,15.134,37.143,15.436,37.143"/>
</g>
</svg>
