<?xml version="1.0" encoding="utf-8"?>
<!-- Generator: Adobe Illustrator 19.0.0, SVG Export Plug-In . SVG Version: 6.00 Build 0)  -->
<svg version="1.1" id="Layer_1" xmlns="http://www.w3.org/2000/svg" xmlns:xlink="http://www.w3.org/1999/xlink" x="0px" y="0px"
	 width="55.659px" height="91.335px" viewBox="0 0 55.659 91.335" style="enable-background:new 0 0 55.659 91.335;"
	 xml:space="preserve">
<style type="text/css">
	.st0{stroke:#000000;stroke-width:2;stroke-miterlimit:10;}
</style>
<g>
	<path class="st0" d="M35.588,66.112l14.993-24.108c0.049-0.078,0.09-0.16,0.122-0.245c2.589-4.222,3.956-9.04501,3.956-13.969
		c0-14.772-12.018-26.79-26.79-26.79S1.078,13.01801,1.078,27.79c0,4.925,1.369,9.75,3.96,13.975
		c0.03,0.074,0.065,0.146,0.107,0.216L19.6,66.172C8.379,67.758,1,72.372,1,77.969c0,6.935,11.785,12.366,26.829,12.366
		s26.829-5.432,26.829-12.366C54.659,72.346,46.936,67.62901,35.588,66.112z M7.731,40.414c-2.39-3.804-3.653-8.169-3.653-12.624
		C4.078,14.672,14.75,4,27.869,4c13.118,0,23.79,10.672,23.79,23.79c0,4.457-1.263,8.822-3.652,12.624
		c-0.05,0.08-0.091,0.163-0.124,0.249L32.043,66.13c-0.238,0.365-0.285,0.448-0.576,0.926l-4,6.432l-19.602-32.804
		C7.83,40.591,7.785,40.50001,7.731,40.414z M27.83,87.335c-14.043,0-23.829-4.937-23.829-9.366c0-4.02,7.37-7.808,17.283-8.981
		l4.87,8.151c0.269,0.449,0.751,0.726,1.274,0.73c0.004,0,0.009,0,0.013,0c0.518,0,1-0.268,1.274-0.708l5.12-8.232
		C43.906,70.02,51.658,73.904,51.658,77.969C51.659,82.399,41.873,87.335,27.83,87.335z"/>
	<path class="st0" d="M37.571,27.79c0-5.371-4.37-9.741-9.741-9.741s-9.741,4.37-9.741,9.741s4.37,9.741,9.741,9.741
		C33.201,37.53101,37.571,33.161,37.571,27.79z M21.089,27.79c0-3.717,3.024-6.741,6.741-6.741s6.741,3.024,6.741,6.741
		s-3.023,6.741-6.741,6.741S21.089,31.50701,21.089,27.79z"/>
</g>
</svg>
