<?xml version="1.0" encoding="utf-8"?>
<!-- Generator: Adobe Illustrator 19.0.0, SVG Export Plug-In . SVG Version: 6.00 Build 0)  -->
<svg version="1.1" id="Layer_1" xmlns="http://www.w3.org/2000/svg" xmlns:xlink="http://www.w3.org/1999/xlink" x="0px" y="0px"
	 width="78.036px" height="58.12698px" viewBox="0 0 78.036 58.12698" style="enable-background:new 0 0 78.036 58.12698;"
	 xml:space="preserve">
<style type="text/css">
	.st0{stroke:#000000;stroke-width:2;stroke-miterlimit:10;}
</style>
<path class="st0" d="M76.96632,56.08499c0.04145-0.145,0.06969-0.298,0.06969-0.459v-53.127c0-0.162-0.02823-0.316-0.07056-0.462
	c-0.00618-0.02-0.0097-0.04-0.01676-0.06c-0.05645-0.171-0.13936-0.325-0.24344-0.46c-0.00706-0.009-0.00794-0.02-0.01499-0.029
	c-0.00441-0.005-0.0097-0.007-0.01411-0.012c-0.11114-0.134-0.24256-0.242-0.38986-0.323c-0.01147-0.006-0.02029-0.014-0.03175-0.02
	c-0.13936-0.071-0.29108-0.111-0.45072-0.123c-0.01588-0.001-0.03088-0.005-0.04675-0.005C75.74205,1.004,75.72882,1,75.71382,1
	H2.32394c-0.01499,0-0.02911,0.004-0.0441,0.005C2.26572,1.006,2.25161,1.009,2.2375,1.01C2.07609,1.022,1.92173,1.063,1.7806,1.135
	C1.77178,1.139,1.76473,1.146,1.75591,1.15C1.60596,1.231,1.47277,1.341,1.36075,1.477c-0.00441,0.005-0.0097,0.006-0.01411,0.011
	C1.33958,1.496,1.3387,1.507,1.33165,1.516c-0.10408,0.135-0.18787,0.29-0.24432,0.461c-0.00706,0.02-0.01058,0.04-0.01676,0.061
	C1.02823,2.184,1,2.338,1,2.5v53.12799c0,0.164,0.02911,0.32,0.07233,0.468c0.00617,0.02,0.0097,0.039,0.01588,0.059
	c0.05733,0.172,0.14201,0.327,0.24697,0.462c0.00617,0.008,0.00794,0.018,0.01411,0.026c0.00529,0.007,0.01235,0.011,0.01852,0.018
	c0.04322,0.051,0.09085,0.096,0.14024,0.14c0.02205,0.019,0.04146,0.042,0.06439,0.06c0.05821,0.046,0.12084,0.083,0.18523,0.117
	c0.01588,0.008,0.02999,0.021,0.04587,0.028c0.15965,0.077,0.33517,0.121,0.51952,0.121h73.38901
	c0.18434,0,0.35986-0.043,0.51952-0.121c0.0247-0.012,0.04763-0.03,0.07144-0.044c0.05469-0.031,0.10938-0.063,0.15965-0.102
	c0.02646-0.021,0.05027-0.048,0.07585-0.071c0.04498-0.041,0.08908-0.082,0.12789-0.129c0.00706-0.008,0.01499-0.014,0.02206-0.022
	c0.00706-0.009,0.00882-0.021,0.01587-0.03c0.1032-0.134,0.18611-0.288,0.24256-0.458
	C76.95574,56.12799,76.96014,56.10699,76.96632,56.08499z M3.64699,5.901l22.26879,23.061l-22.26879,23.245V5.901z M49.28888,27.832
	c-0.09173,0.068-0.18876,0.125-0.26549,0.221c-0.02911,0.036-0.03881,0.083-0.06439,0.121l-9.94056,10.294L5.73389,3.99899h66.5691
	L49.28888,27.832z M27.87743,30.99299l10.24839,10.613c0.25314,0.262,0.57244,0.393,0.89262,0.393
	c0.32018,0,0.63947-0.131,0.89174-0.393l10.12138-10.481l22.26526,23.002H5.71449L27.87743,30.99299z M51.99409,29.09299
	L74.38989,5.901v46.33L51.99409,29.09299z"/>
</svg>
