<?xml version="1.0" encoding="utf-8"?>
<!-- Generator: Adobe Illustrator 19.0.0, SVG Export Plug-In . SVG Version: 6.00 Build 0)  -->
<svg version="1.1" id="Layer_1" xmlns="http://www.w3.org/2000/svg" xmlns:xlink="http://www.w3.org/1999/xlink" x="0px" y="0px"
	 width="62.7px" height="87.39999px" viewBox="0 0 62.7 87.39999" style="enable-background:new 0 0 62.7 87.39999;"
	 xml:space="preserve">
<style type="text/css">
	.st0{stroke:#000000;stroke-width:2;stroke-miterlimit:10;}
</style>
<g>
	<path class="st0" d="M52,1H10.7C5.4,1,1,5.3,1,10.6v66.2c0,5.3,4.3,9.6,9.7,9.6H52c5.3,0,9.7-4.3,9.7-9.6V10.6
		C61.7,5.3,57.4,1,52,1z M58.7,76.8c0,3.7-3,6.6-6.7,6.6H10.7c-3.7,0-6.7-3-6.7-6.6V10.6C4,6.9,7,4,10.7,4H52c3.7,0,6.7,3,6.7,6.6
		V76.8z"/>
	<path class="st0" d="M43.6,10.5H18.9c-0.8,0-1.5,0.7-1.5,1.5s0.7,1.5,1.5,1.5h24.7c0.8,0,1.5-0.7,1.5-1.5S44.4,10.5,43.6,10.5z"/>
	<path class="st0" d="M31.3,67.8c-2.8,0-5,2.3-5,5c0,1.3,0.5,2.6,1.5,3.5c0.9,0.9,2.2,1.4,3.5,1.4l0,0c2.8,0,5-2.3,5-5
		C36.3,70,34.1,67.8,31.3,67.8z M31.4,74.8L31.4,74.8c-0.5,0-1-0.2-1.4-0.6s-0.6-0.9-0.6-1.4c0-1.1,0.9-2,2-2l0,0c1.1,0,2,0.9,2,2
		S32.5,74.8,31.4,74.8z"/>
</g>
</svg>
