<?xml version="1.0" encoding="utf-8"?>
<!-- Generator: Adobe Illustrator 19.0.0, SVG Export Plug-In . SVG Version: 6.00 Build 0)  -->
<svg version="1.1" id="Isolation_Mode" xmlns="http://www.w3.org/2000/svg" xmlns:xlink="http://www.w3.org/1999/xlink" x="0px"
	 y="0px" width="21px" height="21px" viewBox="0 0 21 21" style="enable-background:new 0 0 21 21;" xml:space="preserve">
<style type="text/css">
	.st0{fill:#728497;}
</style>
<path class="st0" d="M16,11c-1.9893,0-3.7432,1.168-4.541,2.9063c-1.8779-0.9561-3.4092-2.4864-4.3652-4.3653
	C8.8311,8.7432,10,6.9893,10,5c0-2.7568-2.2432-5-5-5S0,2.2432,0,5c0,8.8223,7.1777,16,16,16c2.7568,0,5-2.2432,5-5
	S18.7568,11,16,11z M16,19C8.2803,19,2,12.7197,2,5c0-1.6543,1.3457-3,3-3s3,1.3457,3,3c0,1.4473-1.0303,2.6865-2.4492,2.9463
	L4.3682,8.1631l0.4277,1.124c1.2139,3.1817,3.7354,5.7031,6.918,6.918l1.124,0.4277l0.2158-1.1836C13.3135,14.0303,14.5527,13,16,13
	c1.6543,0,3,1.3457,3,3S17.6543,19,16,19z"/>
</svg>
