<?xml version="1.0" encoding="utf-8"?>
<!-- Generator: Adobe Illustrator 19.0.0, SVG Export Plug-In . SVG Version: 6.00 Build 0)  -->
<svg version="1.1" id="Слой_1" xmlns="http://www.w3.org/2000/svg" xmlns:xlink="http://www.w3.org/1999/xlink" x="0px" y="0px"
	 width="171.41031px" height="125.99997px" viewBox="0 0 171.41031 125.99997"
	 style="enable-background:new 0 0 171.41031 125.99997;" xml:space="preserve">
<title>testМонтажная область 16</title>
<path d="M136.75021,6.00567l22.47397,22.47398H33.56794c-1.97225,0-3.57108,1.59883-3.57108,3.57108
	s1.59883,3.57108,3.57108,3.57108h125.65624L136.7502,58.09578c-1.4429,1.34455-1.52264,3.60422-0.17809,5.04713
	c1.34454,1.44291,3.60422,1.52263,5.04712,0.17809c0.06143-0.05725,0.12085-0.11665,0.1781-0.1781l28.5686-28.56861
	c1.3925-1.39423,1.3925-3.65289,0-5.04713l-28.5686-28.56861c-1.44287-1.34458-3.70255-1.2649-5.04713,0.17797
	C135.47217,2.50798,135.47217,4.6342,136.75021,6.00567z"/>
<path d="M29.61299,62.85721L1.04437,91.42582c-1.3925,1.39424-1.3925,3.65289,0,5.04712l28.56861,28.56862
	c1.44294,1.34451,3.70262,1.26471,5.04712-0.17823c1.27787-1.37143,1.27787-3.49747,0-4.86889L12.18613,97.52046h125.65626
	c1.97224,0,3.57108-1.59882,3.57108-3.57108s-1.59883-3.57108-3.57108-3.57108H12.18613l22.47397-22.47397
	c1.3445-1.44294,1.26471-3.70262-0.17823-5.04712C33.11045,61.57935,30.98441,61.57935,29.61299,62.85721z"/>
</svg>
