<?xml version="1.0" encoding="utf-8"?>
<!-- Generator: Adobe Illustrator 19.0.0, SVG Export Plug-In . SVG Version: 6.00 Build 0)  -->
<svg version="1.1" id="Layer_1" xmlns="http://www.w3.org/2000/svg" xmlns:xlink="http://www.w3.org/1999/xlink" x="0px" y="0px"
	 width="86.17801px" height="86.7841px" viewBox="0 0 86.17801 86.7841" style="enable-background:new 0 0 86.17801 86.7841;"
	 xml:space="preserve">
<style type="text/css">
	.st0{clip-path:url(#SVGID_2_);}
</style>
<g>
	<defs>
		<rect id="SVGID_1_" y="0.00011" width="86.178" height="86.784"/>
	</defs>
	<clipPath id="SVGID_2_">
		<use xlink:href="#SVGID_1_"  style="overflow:visible;"/>
	</clipPath>
	<path class="st0" d="M82.3822,43.40821c2.29-1.474,3.795-3.915,3.795-6.676c0-4.478-3.971-8.12-8.852-8.12h-23.586
		c1.114-2.09,2.244-5.515,1.985-10.615c-0.506-10.455-6.85-15.879-10.519-17.436c-2.164-0.91801-4.519-0.7-6.298,0.583
		c-1.786,1.28799-3.802,4.24599-3.263,11.02599c0.558,7.04601-8.411,14.689-12.781,17.973v-2.682c0-0.829-0.671-1.5-1.5-1.5h-19.863
		c-0.829,0-1.5,0.671-1.5,1.5v54.182c0,0.828,0.671,1.5,1.5,1.5h19.863c0.829,0,1.5-0.672,1.5-1.5v-2.737
		c5.654,2.033,21.553,7.511,29.41,7.768l15.777,0.11c4.875,0,8.84-3.805,8.84-8.481c0-2.153-0.843-4.11501-2.222-5.61401
		c4.208-0.655,7.433-4.14799,7.433-8.35999c0-2.242-0.921-4.279-2.41-5.797c3.735-0.997,6.487-4.278,6.487-8.172
		C86.1772,47.4842,84.6732,44.9422,82.3822,43.40821 M3.00021,80.1422v-51.182h16.863v4.02c-0.002,0.04-0.001,0.08,0,0.12v43.634
		c-0.001,0.041-0.003,0.082,0,0.123v3.286h-16.863V80.1422z M77.3252,55.84821h-7.689c-0.003,0-0.006,0.001-0.01,0.001h-1.576
		c-0.829,0-1.5,0.672-1.5,1.5c0,0.828,0.671,1.5,1.5,1.5h5.195c3.228,0,5.855,2.459,5.855,5.479c0,3.022-2.627,5.48-5.855,5.48
		h-5.175c-0.008,0-0.014-0.001-0.02-0.001h-5.514c-0.828,0-1.5,0.672-1.5,1.5s0.672,1.5,1.5,1.5h5.504
		c0.003,0,0.006,0.001,0.01,0.001h0.02c3.211,0.011,5.819,2.47,5.819,5.494c0,3.022-2.62,5.481-5.83,5.481l-15.72699-0.109
		c-7.822-0.257-25.169-6.397-29.469-7.961v-41.863c3.249-2.235,16.556-12.02499,15.771-21.917
		c-0.334-4.20499,0.386-7.172,2.027-8.355c1.365-0.983,2.926-0.442,3.373-0.254c3.023,1.284,8.26,5.85,8.694,14.823
		c0.396,7.798-2.762,10.715-2.883,10.82299c-0.479,0.408-0.653,1.07-0.437,1.661c0.218,0.59,0.778,0.982,1.408,0.982h26.508
		c3.22701,0,5.85201,2.297,5.85201,5.12c0,2.837-2.625,5.146-5.85201,5.146H70.9112c-0.828,0-1.5,0.671-1.5,1.5
		c0,0.829,0.672,1.5,1.5,1.5h6.41299c3.22701,0,5.85201,2.458,5.85201,5.481C83.1772,53.3852,80.5522,55.84821,77.3252,55.84821"/>
</g>
</svg>
