<?xml version="1.0" encoding="utf-8"?>
<!-- Generator: Adobe Illustrator 19.0.0, SVG Export Plug-In . SVG Version: 6.00 Build 0)  -->
<svg version="1.1" id="Layer_1" xmlns="http://www.w3.org/2000/svg" xmlns:xlink="http://www.w3.org/1999/xlink" x="0px" y="0px"
	 width="99.11835px" height="88.087px" viewBox="0 0 99.11835 88.087" style="enable-background:new 0 0 99.11835 88.087;"
	 xml:space="preserve">
<style type="text/css">
	.st0{stroke:#000000;stroke-width:0.5;stroke-miterlimit:10;}
</style>
<path class="st0" d="M51.317,47.224c-0.736-0.376-1.642-0.086-2.019,0.652L39.249,67.517c-0.377,0.738-0.085,1.642,0.652,2.019
	c0.219,0.112,0.452,0.165,0.682,0.165c0.545,0,1.071-0.298,1.336-0.816l10.048-19.641C52.347,48.505,52.055,47.602,51.317,47.224z"
	/>
<path class="st0" d="M61.832,46.474c-0.586-0.585-1.535-0.585-2.121,0s-0.586,1.536,0,2.121l9.583,9.58l-9.583,9.58
	c-0.586,0.585-0.586,1.535,0,2.121c0.293,0.293,0.677,0.439,1.061,0.439s0.768-0.146,1.061-0.439l10.645-10.641
	c0.281-0.281,0.439-0.663,0.439-1.061s-0.158-0.779-0.439-1.061L61.832,46.474z"/>
<path class="st0" d="M31.535,46.475c-0.585-0.586-1.535-0.586-2.121,0l-10.643,10.64c-0.281,0.281-0.439,0.663-0.439,1.061
	s0.158,0.779,0.439,1.061l10.643,10.64c0.293,0.293,0.677,0.439,1.061,0.439s0.768-0.146,1.061-0.439
	c0.586-0.586,0.586-1.535,0-2.121l-9.581-9.58l9.581-9.58C32.121,48.01,32.121,47.061,31.535,46.475z"/>
<path class="st0" d="M88.498,9.664H1.75c-0.829,0-1.5,0.671-1.5,1.5v75.173c0,0.828,0.671,1.5,1.5,1.5h86.748
	c0.828,0,1.5-0.672,1.5-1.5V11.164C89.998,10.335,89.326,9.664,88.498,9.664z M86.998,12.664v18.862H3.25V12.664H86.998z
	 M3.25,84.837V34.526h83.748v50.311L3.25,84.837z"/>
<path class="st0" d="M11.186,23.101h6.89c0.829,0,1.5-0.671,1.5-1.5s-0.671-1.5-1.5-1.5h-6.89c-0.829,0-1.5,0.671-1.5,1.5
	S10.357,23.101,11.186,23.101z"/>
<path class="st0" d="M25.95,23.101h6.89c0.829,0,1.5-0.671,1.5-1.5s-0.671-1.5-1.5-1.5h-6.89c-0.829,0-1.5,0.671-1.5,1.5
	S25.122,23.101,25.95,23.101z"/>
<rect x="95.624" y="0.25" class="st0" width="3" height="80"/>
<polygon class="st0" points="9.7715,3.25 8.7715,0.25 97.7715,0.25 98.7715,3.25 "/>
</svg>
